
<svg width="22px" height="22px" viewBox="0 0 22 22" version="1.1" xmlns="http://www.w3.org/2000/svg" xmlns:xlink="http://www.w3.org/1999/xlink">
    <g id="Styleguide" stroke="none" stroke-width="1" fill="none" fill-rule="evenodd">
        <g id="icon/supprimer_secondary" transform="translate(6.000000, 3.000000)">
            <circle id="Oval" fill-opacity="0.5" fill="#FFFFFF" cx="5" cy="8" r="11"></circle>
            <path d="M-0.368932039,2.93461194 L11.4397379,2.93283582 L11.4412524,14.4419627 C11.4415049,15.2790224 10.7600777,15.9639701 9.9274466,15.9639701 L1.14676699,15.9653657 C0.314009709,15.9654925 -0.367291262,15.2806716 -0.367543689,14.4437388 L-0.368932039,2.93461194 Z M9.35973786,14.4524925 L9.35797087,4.02857463 L8.29840777,4.02857463 L8.29992233,14.4526194 L9.35973786,14.4524925 Z M6.06682524,14.453 L6.06531068,4.02895522 L5.00562136,4.02908209 L5.00700971,14.4532537 L6.06682524,14.453 Z M2.77391262,14.4535075 L2.77265049,4.02946269 L1.71283495,4.02946269 L1.71434951,14.4536343 L2.77391262,14.4535075 Z" id="Combined-Shape" fill="#5D5D5D"></path>
            <path d="M11.9782913,1.34485821 C11.9782913,0.962358209 11.7002427,0.649253731 11.3602233,0.649253731 L-0.381932039,0.650776119 C-0.721825243,0.650776119 -1,0.964007463 -1,1.34663433 L-0.999621359,2.35838806 L11.9785437,2.35661194 L11.9782913,1.34485821" id="Fill-8" fill="#5D5D5D"></path>
            <path d="M4.02166019,-0.230052239 L7.01860194,-0.23030597 L7.01885437,0.319149254 L8.1278932,0.318895522 L8.12764078,-0.289552239 C8.12764078,-0.680298507 7.80970874,-1 7.42109709,-1 L3.61903883,-0.999365672 C3.23067961,-0.999365672 2.91262136,-0.679791045 2.91262136,-0.289044776 L2.91287379,0.319783582 L4.02191262,0.319656716 L4.02166019,-0.230052239" id="Fill-9" fill="#5D5D5D"></path>
        </g>
    </g>
</svg>
