<svg viewBox="0 0 839 839" version="1.1" xmlns="http://www.w3.org/2000/svg" xmlns:xlink="http://www.w3.org/1999/xlink">
    <g id="Page-1" stroke="none" stroke-width="1" fill="none" fill-rule="evenodd">
        <g id="rotate" transform="translate(419.500000, 419.500000) scale(-1, 1) translate(-419.500000, -419.500000) ">
            <circle id="Oval-Copy" fill-opacity="0.5" fill="#FFFFFF" transform="translate(419.500000, 419.500000) rotate(-180.000000) translate(-419.500000, -419.500000) " cx="419.5" cy="419.5" r="419.5"></circle>
            <path d="M165.507668,216.714102 C226.591687,140.249711 319.232976,94.5 419.5,94.5 C598.992544,94.5 744.5,240.007456 744.5,419.5 C744.5,598.992544 598.992544,744.5 419.5,744.5 C408.178163,744.5 399,735.321837 399,724 C399,712.678163 408.178163,703.5 419.5,703.5 C576.348869,703.5 703.5,576.348869 703.5,419.5 C703.5,262.651131 576.348869,135.5 419.5,135.5 C337.235515,135.5 260.892773,170.706177 207.671441,230.312304 L278.452854,253.139956 L114.846529,419.975864 L79.5415975,188.989259 L165.507668,216.714102 Z" id="Oval" fill="#5D5D5D"></path>
        </g>
    </g>
</svg>
