<svg viewBox="0 0 841 841" version="1.1" xmlns="http://www.w3.org/2000/svg" xmlns:xlink="http://www.w3.org/1999/xlink">
    <g id="Page-1" stroke="none" stroke-width="1" fill="none" fill-rule="evenodd">
        <circle id="Oval-Copy"  fill-opacity="0.5" fill="#FFFFFF" transform="translate(420.500000, 420.500000) rotate(-180.000000) translate(-420.500000, -420.500000) " cx="420.5" cy="420.5" r="419.5"></circle>
        <path id="Oval" d="M166.507668,217.714102 C227.591687,141.249711 320.232976,95.5 420.5,95.5 C599.992544,95.5 745.5,241.007456 745.5,420.5 C745.5,599.992544 599.992544,745.5 420.5,745.5 C409.178163,745.5 400,736.321837 400,725 C400,713.678163 409.178163,704.5 420.5,704.5 C577.348869,704.5 704.5,577.348869 704.5,420.5 C704.5,263.651131 577.348869,136.5 420.5,136.5 C338.235515,136.5 261.892773,171.706177 208.671441,231.312304 L279.452854,254.139956 L115.846529,420.975864 L80.5415975,189.989259 L166.507668,217.714102 Z" fill="#5D5D5D" fill-rule="nonzero"></path>
    </g>
</svg>
